%TF.GenerationSoftware,KiCad,Pcbnew,8.0.1*%
%TF.CreationDate,2024-05-06T13:43:09-07:00*%
%TF.ProjectId,girlvoice,6769726c-766f-4696-9365-2e6b69636164,rev?*%
%TF.SameCoordinates,Original*%
%TF.FileFunction,Soldermask,Top*%
%TF.FilePolarity,Negative*%
%FSLAX46Y46*%
G04 Gerber Fmt 4.6, Leading zero omitted, Abs format (unit mm)*
G04 Created by KiCad (PCBNEW 8.0.1) date 2024-05-06 13:43:09*
%MOMM*%
%LPD*%
G01*
G04 APERTURE LIST*
G04 Aperture macros list*
%AMRoundRect*
0 Rectangle with rounded corners*
0 $1 Rounding radius*
0 $2 $3 $4 $5 $6 $7 $8 $9 X,Y pos of 4 corners*
0 Add a 4 corners polygon primitive as box body*
4,1,4,$2,$3,$4,$5,$6,$7,$8,$9,$2,$3,0*
0 Add four circle primitives for the rounded corners*
1,1,$1+$1,$2,$3*
1,1,$1+$1,$4,$5*
1,1,$1+$1,$6,$7*
1,1,$1+$1,$8,$9*
0 Add four rect primitives between the rounded corners*
20,1,$1+$1,$2,$3,$4,$5,0*
20,1,$1+$1,$4,$5,$6,$7,0*
20,1,$1+$1,$6,$7,$8,$9,0*
20,1,$1+$1,$8,$9,$2,$3,0*%
%AMRotRect*
0 Rectangle, with rotation*
0 The origin of the aperture is its center*
0 $1 length*
0 $2 width*
0 $3 Rotation angle, in degrees counterclockwise*
0 Add horizontal line*
21,1,$1,$2,0,0,$3*%
%AMFreePoly0*
4,1,53,0.180687,1.453641,0.352314,1.393587,0.506274,1.296847,0.634847,1.168274,0.731587,1.014314,0.791641,0.842687,0.812000,0.662000,0.791641,0.481313,0.731587,0.309686,0.634847,0.155726,0.506274,0.027153,0.352314,-0.069587,0.180687,-0.129641,0.000000,-0.150000,-0.180687,-0.129641,-0.352314,-0.069587,-0.506274,0.027153,-0.634847,0.155726,-0.731587,0.309686,-0.791641,0.481313,
-0.812000,0.662000,-0.517265,0.662000,-0.496312,0.516270,-0.435151,0.382345,-0.338737,0.271077,-0.214880,0.191479,-0.073614,0.150000,0.073614,0.150000,0.214880,0.191479,0.338737,0.271077,0.435151,0.382345,0.496312,0.516270,0.517265,0.662000,0.496312,0.807730,0.435151,0.941655,0.338737,1.052923,0.214880,1.132521,0.073614,1.174000,-0.073614,1.174000,-0.214880,1.132521,
-0.338737,1.052923,-0.435151,0.941655,-0.496312,0.807730,-0.517265,0.662000,-0.812000,0.662000,-0.791641,0.842687,-0.731587,1.014314,-0.634847,1.168274,-0.506274,1.296847,-0.352314,1.393587,-0.180687,1.453641,0.000000,1.474000,0.180687,1.453641,0.180687,1.453641,$1*%
G04 Aperture macros list end*
%ADD10RoundRect,0.250001X-0.462499X-1.074999X0.462499X-1.074999X0.462499X1.074999X-0.462499X1.074999X0*%
%ADD11RoundRect,0.135000X-0.185000X0.135000X-0.185000X-0.135000X0.185000X-0.135000X0.185000X0.135000X0*%
%ADD12RoundRect,0.250000X0.250000X0.475000X-0.250000X0.475000X-0.250000X-0.475000X0.250000X-0.475000X0*%
%ADD13RoundRect,0.200000X0.200000X0.600000X-0.200000X0.600000X-0.200000X-0.600000X0.200000X-0.600000X0*%
%ADD14RoundRect,0.250001X0.799999X1.249999X-0.799999X1.249999X-0.799999X-1.249999X0.799999X-1.249999X0*%
%ADD15RoundRect,0.135000X0.135000X0.185000X-0.135000X0.185000X-0.135000X-0.185000X0.135000X-0.185000X0*%
%ADD16RoundRect,0.250000X0.512652X0.159099X0.159099X0.512652X-0.512652X-0.159099X-0.159099X-0.512652X0*%
%ADD17RoundRect,0.250000X0.475000X-0.250000X0.475000X0.250000X-0.475000X0.250000X-0.475000X-0.250000X0*%
%ADD18RoundRect,0.140000X-0.170000X0.140000X-0.170000X-0.140000X0.170000X-0.140000X0.170000X0.140000X0*%
%ADD19RoundRect,0.135000X0.185000X-0.135000X0.185000X0.135000X-0.185000X0.135000X-0.185000X-0.135000X0*%
%ADD20RoundRect,0.140000X0.170000X-0.140000X0.170000X0.140000X-0.170000X0.140000X-0.170000X-0.140000X0*%
%ADD21RoundRect,0.218750X0.218750X0.256250X-0.218750X0.256250X-0.218750X-0.256250X0.218750X-0.256250X0*%
%ADD22C,0.900000*%
%ADD23RoundRect,0.135000X-0.450724X0.171166X-0.235251X-0.420841X0.450724X-0.171166X0.235251X0.420841X0*%
%ADD24RoundRect,0.082500X-0.443391X0.655375X0.081610X-0.787053X0.443391X-0.655375X-0.081610X0.787053X0*%
%ADD25RoundRect,0.200000X-0.200000X-0.275000X0.200000X-0.275000X0.200000X0.275000X-0.200000X0.275000X0*%
%ADD26RoundRect,0.075000X-0.075000X-0.200000X0.075000X-0.200000X0.075000X0.200000X-0.075000X0.200000X0*%
%ADD27R,1.200000X1.200000*%
%ADD28RoundRect,0.135000X-0.135000X-0.185000X0.135000X-0.185000X0.135000X0.185000X-0.135000X0.185000X0*%
%ADD29C,0.500000*%
%ADD30RoundRect,0.130500X-0.130500X0.169500X-0.130500X-0.169500X0.130500X-0.169500X0.130500X0.169500X0*%
%ADD31FreePoly0,0.000000*%
%ADD32RoundRect,0.140000X0.140000X0.170000X-0.140000X0.170000X-0.140000X-0.170000X0.140000X-0.170000X0*%
%ADD33RoundRect,0.218750X0.336909X-0.002858X0.055689X0.332287X-0.336909X0.002858X-0.055689X-0.332287X0*%
%ADD34RoundRect,0.112500X-0.112500X-0.237500X0.112500X-0.237500X0.112500X0.237500X-0.112500X0.237500X0*%
%ADD35RoundRect,0.140000X-0.140000X-0.170000X0.140000X-0.170000X0.140000X0.170000X-0.140000X0.170000X0*%
%ADD36RoundRect,0.250000X-0.475000X0.250000X-0.475000X-0.250000X0.475000X-0.250000X0.475000X0.250000X0*%
%ADD37RoundRect,0.062500X0.062500X-0.187500X0.062500X0.187500X-0.062500X0.187500X-0.062500X-0.187500X0*%
%ADD38R,1.600000X0.900000*%
%ADD39C,0.320000*%
%ADD40O,0.210000X0.320000*%
%ADD41O,0.320000X0.210000*%
%ADD42RoundRect,0.125000X0.262500X0.125000X-0.262500X0.125000X-0.262500X-0.125000X0.262500X-0.125000X0*%
%ADD43R,3.400000X4.000000*%
%ADD44RoundRect,0.075000X0.075000X-0.650000X0.075000X0.650000X-0.075000X0.650000X-0.075000X-0.650000X0*%
%ADD45R,1.880000X1.570000*%
%ADD46RoundRect,0.130500X0.130500X-0.169500X0.130500X0.169500X-0.130500X0.169500X-0.130500X-0.169500X0*%
%ADD47FreePoly0,180.000000*%
%ADD48RoundRect,0.250000X-0.250000X-0.475000X0.250000X-0.475000X0.250000X0.475000X-0.250000X0.475000X0*%
%ADD49RoundRect,0.135000X-0.235251X0.420841X-0.450724X-0.171166X0.235251X-0.420841X0.450724X0.171166X0*%
%ADD50RoundRect,0.082500X0.081610X0.787053X-0.443391X-0.655375X-0.081610X-0.787053X0.443391X0.655375X0*%
%ADD51RotRect,0.300000X1.100000X135.000000*%
%ADD52RotRect,2.300000X3.100000X135.000000*%
%ADD53RoundRect,0.135000X-0.455298X-0.158599X0.090298X-0.473599X0.455298X0.158599X-0.090298X0.473599X0*%
%ADD54RoundRect,0.082500X-0.760924X0.217040X0.568424X-0.550460X0.760924X-0.217040X-0.568424X0.550460X0*%
%ADD55R,0.300000X1.100000*%
%ADD56R,2.300000X3.100000*%
%ADD57R,0.650000X0.850000*%
%ADD58C,1.600000*%
%ADD59RotRect,1.600000X1.600000X225.000000*%
%ADD60RoundRect,0.112500X0.237500X-0.112500X0.237500X0.112500X-0.237500X0.112500X-0.237500X-0.112500X0*%
%ADD61R,1.500000X3.600000*%
%ADD62R,0.300000X0.700000*%
%ADD63R,1.000000X0.700000*%
%ADD64O,1.100000X2.100000*%
%ADD65O,1.100000X2.600000*%
%ADD66RoundRect,0.062500X0.375000X0.062500X-0.375000X0.062500X-0.375000X-0.062500X0.375000X-0.062500X0*%
%ADD67RoundRect,0.062500X0.062500X0.375000X-0.062500X0.375000X-0.062500X-0.375000X0.062500X-0.375000X0*%
%ADD68R,6.000000X6.000000*%
%ADD69RoundRect,0.218750X-0.256250X0.218750X-0.256250X-0.218750X0.256250X-0.218750X0.256250X0.218750X0*%
%ADD70RoundRect,0.062500X0.187500X0.062500X-0.187500X0.062500X-0.187500X-0.062500X0.187500X-0.062500X0*%
%ADD71R,0.900000X1.600000*%
%ADD72RoundRect,0.050000X-0.229810X-0.300520X0.300520X0.229810X0.229810X0.300520X-0.300520X-0.229810X0*%
%ADD73RoundRect,0.050000X0.229810X-0.300520X0.300520X-0.229810X-0.229810X0.300520X-0.300520X0.229810X0*%
%ADD74RotRect,1.650000X1.650000X45.000000*%
%ADD75RoundRect,0.150000X-0.150000X0.587500X-0.150000X-0.587500X0.150000X-0.587500X0.150000X0.587500X0*%
%ADD76RoundRect,0.250001X1.074999X-0.462499X1.074999X0.462499X-1.074999X0.462499X-1.074999X-0.462499X0*%
%ADD77RoundRect,0.062500X-0.062500X0.350000X-0.062500X-0.350000X0.062500X-0.350000X0.062500X0.350000X0*%
%ADD78RoundRect,0.062500X-0.350000X0.062500X-0.350000X-0.062500X0.350000X-0.062500X0.350000X0.062500X0*%
%ADD79R,1.230000X1.230000*%
G04 APERTURE END LIST*
D10*
%TO.C,L2*%
X87612500Y-97600000D03*
X90587500Y-97600000D03*
%TD*%
D11*
%TO.C,R7*%
X108650000Y-90640000D03*
X108650000Y-91660000D03*
%TD*%
D12*
%TO.C,C8*%
X86150000Y-92900000D03*
X84250000Y-92900000D03*
%TD*%
D13*
%TO.C,J2*%
X91025000Y-91750000D03*
X89775000Y-91750000D03*
X88525000Y-91750000D03*
X87275000Y-91750000D03*
D14*
X93575000Y-88850000D03*
X84725000Y-88850000D03*
%TD*%
D15*
%TO.C,R50*%
X95810000Y-104950000D03*
X94790000Y-104950000D03*
%TD*%
D16*
%TO.C,C49*%
X113021751Y-106021751D03*
X111678249Y-104678249D03*
%TD*%
D17*
%TO.C,C50*%
X117200000Y-109450000D03*
X117200000Y-107550000D03*
%TD*%
D18*
%TO.C,C23*%
X93600000Y-102970000D03*
X93600000Y-103930000D03*
%TD*%
D17*
%TO.C,C39*%
X85200000Y-110150000D03*
X85200000Y-108250000D03*
%TD*%
D19*
%TO.C,R26*%
X106000000Y-87360000D03*
X106000000Y-86340000D03*
%TD*%
D20*
%TO.C,C28*%
X99750000Y-93480000D03*
X99750000Y-92520000D03*
%TD*%
D12*
%TO.C,C42*%
X91850000Y-108100000D03*
X89950000Y-108100000D03*
%TD*%
D18*
%TO.C,C32*%
X114150000Y-97920000D03*
X114150000Y-98880000D03*
%TD*%
D21*
%TO.C,D5*%
X112937500Y-96100000D03*
X111362500Y-96100000D03*
%TD*%
D22*
%TO.C,SW3*%
X80361761Y-106140315D03*
X81028700Y-107972715D03*
D23*
X81450614Y-104600014D03*
X82852895Y-108452754D03*
X79947105Y-105147246D03*
X81349386Y-108999986D03*
D24*
X82739062Y-106312622D03*
%TD*%
D20*
%TO.C,C41*%
X105100000Y-87330000D03*
X105100000Y-86370000D03*
%TD*%
D10*
%TO.C,L1*%
X87612500Y-103950000D03*
X90587500Y-103950000D03*
%TD*%
D25*
%TO.C,R35*%
X79825000Y-102650000D03*
X81475000Y-102650000D03*
%TD*%
D11*
%TO.C,R4*%
X105250000Y-107490000D03*
X105250000Y-108510000D03*
%TD*%
D19*
%TO.C,R27*%
X88700000Y-113010000D03*
X88700000Y-111990000D03*
%TD*%
%TO.C,R28*%
X107900000Y-83010000D03*
X107900000Y-81990000D03*
%TD*%
D26*
%TO.C,U10*%
X97200000Y-112085000D03*
X97700000Y-112085000D03*
X98200000Y-112085000D03*
X98700000Y-112085000D03*
X99200000Y-112085000D03*
X99200000Y-111315000D03*
X98700000Y-111315000D03*
X98200000Y-111315000D03*
X97700000Y-111315000D03*
X97200000Y-111315000D03*
%TD*%
D27*
%TO.C,D4*%
X85150000Y-103725000D03*
X85150000Y-106525000D03*
%TD*%
D28*
%TO.C,R2*%
X94490000Y-98000000D03*
X95510000Y-98000000D03*
%TD*%
D19*
%TO.C,R10*%
X85600000Y-98010000D03*
X85600000Y-96990000D03*
%TD*%
D11*
%TO.C,R34*%
X96150000Y-88190000D03*
X96150000Y-89210000D03*
%TD*%
D20*
%TO.C,C9*%
X98250000Y-93480000D03*
X98250000Y-92520000D03*
%TD*%
%TO.C,C54*%
X79300000Y-99180000D03*
X79300000Y-98220000D03*
%TD*%
D18*
%TO.C,C31*%
X82550000Y-101870000D03*
X82550000Y-102830000D03*
%TD*%
D29*
%TO.C,MK2*%
X117500000Y-100000000D03*
D30*
X119574000Y-99100000D03*
X118752000Y-99100000D03*
D31*
X117500000Y-100662000D03*
D30*
X118752000Y-100900000D03*
X119574000Y-100900000D03*
X119574000Y-100000000D03*
%TD*%
D19*
%TO.C,R41*%
X104400000Y-93510000D03*
X104400000Y-92490000D03*
%TD*%
D32*
%TO.C,C11*%
X95480000Y-97150000D03*
X94520000Y-97150000D03*
%TD*%
D20*
%TO.C,C27*%
X101250000Y-93480000D03*
X101250000Y-92520000D03*
%TD*%
D32*
%TO.C,C10*%
X95480000Y-95450000D03*
X94520000Y-95450000D03*
%TD*%
D18*
%TO.C,C55*%
X120700000Y-100870000D03*
X120700000Y-101830000D03*
%TD*%
D17*
%TO.C,C35*%
X90600000Y-95350000D03*
X90600000Y-93450000D03*
%TD*%
D11*
%TO.C,R15*%
X92800000Y-102940000D03*
X92800000Y-103960000D03*
%TD*%
D19*
%TO.C,R39*%
X105850000Y-113060000D03*
X105850000Y-112040000D03*
%TD*%
D32*
%TO.C,C20*%
X95480000Y-96300000D03*
X94520000Y-96300000D03*
%TD*%
D33*
%TO.C,D2*%
X85506195Y-113203260D03*
X84493805Y-111996740D03*
%TD*%
D11*
%TO.C,R19*%
X92000000Y-96490000D03*
X92000000Y-97510000D03*
%TD*%
%TO.C,R13*%
X81200000Y-96790000D03*
X81200000Y-97810000D03*
%TD*%
D17*
%TO.C,C26*%
X90600000Y-101750000D03*
X90600000Y-99850000D03*
%TD*%
D34*
%TO.C,D1*%
X82250000Y-97800000D03*
X83550000Y-97800000D03*
X82900000Y-95800000D03*
%TD*%
D20*
%TO.C,C24*%
X112100000Y-101330000D03*
X112100000Y-100370000D03*
%TD*%
D35*
%TO.C,C30*%
X108320000Y-100950000D03*
X109280000Y-100950000D03*
%TD*%
D11*
%TO.C,R32*%
X82950000Y-109990000D03*
X82950000Y-111010000D03*
%TD*%
D36*
%TO.C,C15*%
X95450000Y-90700000D03*
X95450000Y-92600000D03*
%TD*%
D26*
%TO.C,U11*%
X102800000Y-112085000D03*
X103300000Y-112085000D03*
X103800000Y-112085000D03*
X104300000Y-112085000D03*
X104800000Y-112085000D03*
X104800000Y-111315000D03*
X104300000Y-111315000D03*
X103800000Y-111315000D03*
X103300000Y-111315000D03*
X102800000Y-111315000D03*
%TD*%
D15*
%TO.C,R49*%
X95810000Y-105800000D03*
X94790000Y-105800000D03*
%TD*%
D28*
%TO.C,R22*%
X92990000Y-105750000D03*
X94010000Y-105750000D03*
%TD*%
D32*
%TO.C,C17*%
X84980000Y-94400000D03*
X84020000Y-94400000D03*
%TD*%
D37*
%TO.C,U3*%
X87700000Y-101950000D03*
X88200000Y-101950000D03*
X88700000Y-101950000D03*
X89200000Y-101950000D03*
X89200000Y-100050000D03*
X88700000Y-100050000D03*
X88200000Y-100050000D03*
X87700000Y-100050000D03*
D38*
X88450000Y-101000000D03*
%TD*%
D11*
%TO.C,R45*%
X93900000Y-113290000D03*
X93900000Y-114310000D03*
%TD*%
D39*
%TO.C,U7*%
X99100000Y-90900000D03*
X98700000Y-90900000D03*
X98300000Y-90900000D03*
D40*
X97900000Y-90900000D03*
X97500000Y-90900000D03*
D39*
X97100000Y-90900000D03*
D41*
X99100000Y-90500000D03*
D39*
X98700000Y-90500000D03*
X98300000Y-90500000D03*
X97900000Y-90500000D03*
X97500000Y-90500000D03*
D41*
X97100000Y-90500000D03*
X99100000Y-90100000D03*
X98700000Y-90100000D03*
D39*
X98300000Y-90100000D03*
X97900000Y-90100000D03*
X97500000Y-90100000D03*
D41*
X97100000Y-90100000D03*
X99100000Y-89700000D03*
X98700000Y-89700000D03*
D39*
X98300000Y-89700000D03*
X97900000Y-89700000D03*
X97500000Y-89700000D03*
X97100000Y-89700000D03*
X99100000Y-89300000D03*
X98700000Y-89300000D03*
X98300000Y-89300000D03*
X97900000Y-89300000D03*
X97500000Y-89300000D03*
X97100000Y-89300000D03*
X99100000Y-88900000D03*
X98700000Y-88900000D03*
X98300000Y-88900000D03*
X97900000Y-88900000D03*
X97500000Y-88900000D03*
X97100000Y-88900000D03*
X99100000Y-88500000D03*
X98700000Y-88500000D03*
D40*
X98300000Y-88500000D03*
X97900000Y-88500000D03*
D39*
X97500000Y-88500000D03*
X97100000Y-88500000D03*
%TD*%
D42*
%TO.C,U2*%
X103025000Y-110030000D03*
X103025000Y-108760000D03*
X103025000Y-107490000D03*
X103025000Y-106220000D03*
X97700000Y-106220000D03*
X97700000Y-107490000D03*
X97700000Y-108760000D03*
X97700000Y-110030000D03*
D43*
X100362500Y-108125000D03*
%TD*%
D17*
%TO.C,C38*%
X92250000Y-95350000D03*
X92250000Y-93450000D03*
%TD*%
D44*
%TO.C,U8*%
X86830000Y-110760000D03*
X87330000Y-110760000D03*
X87830000Y-110760000D03*
X88330000Y-110760000D03*
X88830000Y-110760000D03*
X88830000Y-106460000D03*
X88330000Y-106460000D03*
X87830000Y-106460000D03*
X87330000Y-106460000D03*
X86830000Y-106460000D03*
D45*
X87830000Y-108610000D03*
%TD*%
D19*
%TO.C,R20*%
X108650000Y-93510000D03*
X108650000Y-92490000D03*
%TD*%
%TO.C,R52*%
X110200000Y-98010000D03*
X110200000Y-96990000D03*
%TD*%
%TO.C,R43*%
X79300000Y-101010000D03*
X79300000Y-99990000D03*
%TD*%
D33*
%TO.C,D3*%
X84506196Y-114003259D03*
X83493804Y-112796741D03*
%TD*%
D15*
%TO.C,R30*%
X108260000Y-83900000D03*
X107240000Y-83900000D03*
%TD*%
D19*
%TO.C,R14*%
X86100000Y-95410000D03*
X86100000Y-94390000D03*
%TD*%
D12*
%TO.C,C43*%
X91850000Y-106450000D03*
X89950000Y-106450000D03*
%TD*%
D11*
%TO.C,R11*%
X84600000Y-96990000D03*
X84600000Y-98010000D03*
%TD*%
D28*
%TO.C,R3*%
X94490000Y-98850000D03*
X95510000Y-98850000D03*
%TD*%
D29*
%TO.C,MK1*%
X82500000Y-100000000D03*
D46*
X80426000Y-100900000D03*
X81248000Y-100900000D03*
D47*
X82500000Y-99338000D03*
D46*
X81248000Y-99100000D03*
X80426000Y-99100000D03*
X80426000Y-100000000D03*
%TD*%
D32*
%TO.C,C19*%
X95480000Y-103950000D03*
X94520000Y-103950000D03*
%TD*%
D48*
%TO.C,C6*%
X117600000Y-102350000D03*
X119500000Y-102350000D03*
%TD*%
D32*
%TO.C,C18*%
X95480000Y-100550000D03*
X94520000Y-100550000D03*
%TD*%
D20*
%TO.C,C25*%
X102750000Y-93480000D03*
X102750000Y-92520000D03*
%TD*%
D19*
%TO.C,R6*%
X107300000Y-107010000D03*
X107300000Y-105990000D03*
%TD*%
D28*
%TO.C,R23*%
X92990000Y-106550000D03*
X94010000Y-106550000D03*
%TD*%
%TO.C,R47*%
X100290000Y-112100000D03*
X101310000Y-112100000D03*
%TD*%
D17*
%TO.C,C13*%
X99200000Y-87150000D03*
X99200000Y-85250000D03*
%TD*%
D22*
%TO.C,SW1*%
X81028700Y-92027285D03*
X80361761Y-93859685D03*
D49*
X82852895Y-91547246D03*
X81450612Y-95399986D03*
X81349388Y-91000014D03*
X79947105Y-94852754D03*
D50*
X82739062Y-93687379D03*
%TD*%
D18*
%TO.C,C1*%
X104050000Y-106270000D03*
X104050000Y-107230000D03*
%TD*%
D35*
%TO.C,C4*%
X108320000Y-97450000D03*
X109280000Y-97450000D03*
%TD*%
D51*
%TO.C,J3*%
X113829289Y-93988478D03*
X113475736Y-93634924D03*
X113122183Y-93281371D03*
X112768629Y-92927817D03*
X112415076Y-92574264D03*
X112061522Y-92220711D03*
D52*
X116212239Y-93967264D03*
X112082736Y-89837761D03*
%TD*%
D11*
%TO.C,R44*%
X120700000Y-98990000D03*
X120700000Y-100010000D03*
%TD*%
D19*
%TO.C,R5*%
X105850000Y-114910000D03*
X105850000Y-113890000D03*
%TD*%
D20*
%TO.C,C16*%
X96600000Y-109980000D03*
X96600000Y-109020000D03*
%TD*%
D36*
%TO.C,C22*%
X107000000Y-89350000D03*
X107000000Y-91250000D03*
%TD*%
D17*
%TO.C,C14*%
X97300000Y-87150000D03*
X97300000Y-85250000D03*
%TD*%
D19*
%TO.C,R37*%
X93900000Y-118810000D03*
X93900000Y-117790000D03*
%TD*%
D18*
%TO.C,C34*%
X93600000Y-96520000D03*
X93600000Y-97480000D03*
%TD*%
D22*
%TO.C,SW2*%
X88993125Y-117327934D03*
X90681874Y-118302933D03*
D53*
X88837147Y-115448094D03*
X92387851Y-117498094D03*
X88037147Y-116833734D03*
X91587851Y-118883734D03*
D54*
X90924998Y-115931828D03*
%TD*%
D32*
%TO.C,C51*%
X109305000Y-104850000D03*
X108345000Y-104850000D03*
%TD*%
D35*
%TO.C,C5*%
X108320000Y-98450000D03*
X109280000Y-98450000D03*
%TD*%
D28*
%TO.C,R40*%
X119640000Y-97950000D03*
X120660000Y-97950000D03*
%TD*%
D35*
%TO.C,C47*%
X117520000Y-104500000D03*
X118480000Y-104500000D03*
%TD*%
D36*
%TO.C,C33*%
X107300000Y-115150000D03*
X107300000Y-117050000D03*
%TD*%
D20*
%TO.C,C7*%
X105250000Y-93480000D03*
X105250000Y-92520000D03*
%TD*%
D17*
%TO.C,C46*%
X103660000Y-87150000D03*
X103660000Y-85250000D03*
%TD*%
D55*
%TO.C,J1*%
X96500000Y-79675000D03*
X97000000Y-79675000D03*
X97500000Y-79675000D03*
X98000000Y-79675000D03*
X98500000Y-79675000D03*
X99000000Y-79675000D03*
X99500000Y-79675000D03*
X100000000Y-79675000D03*
X100500000Y-79675000D03*
X101000000Y-79675000D03*
X101500000Y-79675000D03*
X102000000Y-79675000D03*
X102500000Y-79675000D03*
X103000000Y-79675000D03*
X103500000Y-79675000D03*
D56*
X94830000Y-81325000D03*
X105170000Y-81325000D03*
%TD*%
D32*
%TO.C,C21*%
X95480000Y-99700000D03*
X94520000Y-99700000D03*
%TD*%
D57*
%TO.C,U5*%
X112975000Y-97575000D03*
X111325000Y-97575000D03*
X111325000Y-99125000D03*
X112975000Y-99125000D03*
%TD*%
D12*
%TO.C,C52*%
X110300000Y-103375000D03*
X108400000Y-103375000D03*
%TD*%
D19*
%TO.C,R42*%
X103600000Y-93510000D03*
X103600000Y-92490000D03*
%TD*%
D11*
%TO.C,R18*%
X92800000Y-96490000D03*
X92800000Y-97510000D03*
%TD*%
D17*
%TO.C,C45*%
X101750000Y-87150000D03*
X101750000Y-85250000D03*
%TD*%
D58*
%TO.C,J8*%
X112998478Y-112998478D03*
X109462944Y-109462944D03*
D59*
X109215456Y-113104544D03*
X106599161Y-110488249D03*
X115720839Y-111831751D03*
X111831751Y-115720839D03*
X113104544Y-109215456D03*
X110488249Y-106599161D03*
%TD*%
D60*
%TO.C,Q1*%
X111625000Y-84072500D03*
X111625000Y-82772500D03*
X109625000Y-83422500D03*
%TD*%
D28*
%TO.C,R8*%
X108290000Y-96650000D03*
X109310000Y-96650000D03*
%TD*%
D36*
%TO.C,C53*%
X115350000Y-106350000D03*
X115350000Y-108250000D03*
%TD*%
D11*
%TO.C,R33*%
X95250000Y-88540000D03*
X95250000Y-89560000D03*
%TD*%
D61*
%TO.C,L4*%
X101725000Y-90050000D03*
X104775000Y-90050000D03*
%TD*%
D62*
%TO.C,J7*%
X97000000Y-113685000D03*
X97500000Y-113685000D03*
X98000000Y-113685000D03*
X98500000Y-113685000D03*
X99000000Y-113685000D03*
X99500000Y-113685000D03*
X100500000Y-113685000D03*
X101000000Y-113685000D03*
X101500000Y-113685000D03*
X102000000Y-113685000D03*
X102500000Y-113685000D03*
X103000000Y-113685000D03*
D63*
X103100000Y-114985000D03*
D62*
X102250000Y-114985000D03*
X101750000Y-114985000D03*
X101250000Y-114985000D03*
X100750000Y-114985000D03*
X100250000Y-114985000D03*
X99750000Y-114985000D03*
X99250000Y-114985000D03*
X98750000Y-114985000D03*
X98250000Y-114985000D03*
X97750000Y-114985000D03*
D63*
X96900000Y-114985000D03*
D64*
X95680000Y-114095000D03*
D65*
X95680000Y-119455000D03*
D64*
X104320000Y-114095000D03*
D65*
X104320000Y-119455000D03*
%TD*%
D20*
%TO.C,C36*%
X107800000Y-93480000D03*
X107800000Y-92520000D03*
%TD*%
D19*
%TO.C,R21*%
X106950000Y-93510000D03*
X106950000Y-92490000D03*
%TD*%
%TO.C,R46*%
X105850000Y-117210000D03*
X105850000Y-116190000D03*
%TD*%
D15*
%TO.C,R12*%
X85010000Y-95400000D03*
X83990000Y-95400000D03*
%TD*%
D11*
%TO.C,R16*%
X92000000Y-102940000D03*
X92000000Y-103960000D03*
%TD*%
D66*
%TO.C,U1*%
X106937500Y-103950000D03*
X106937500Y-103450000D03*
X106937500Y-102950000D03*
X106937500Y-102450000D03*
X106937500Y-101950000D03*
X106937500Y-101450000D03*
X106937500Y-100950000D03*
X106937500Y-100450000D03*
X106937500Y-99950000D03*
X106937500Y-99450000D03*
X106937500Y-98950000D03*
X106937500Y-98450000D03*
X106937500Y-97950000D03*
X106937500Y-97450000D03*
X106937500Y-96950000D03*
X106937500Y-96450000D03*
X106937500Y-95950000D03*
X106937500Y-95450000D03*
D67*
X106250000Y-94762500D03*
X105750000Y-94762500D03*
X105250000Y-94762500D03*
X104750000Y-94762500D03*
X104250000Y-94762500D03*
X103750000Y-94762500D03*
X103250000Y-94762500D03*
X102750000Y-94762500D03*
X102250000Y-94762500D03*
X101750000Y-94762500D03*
X101250000Y-94762500D03*
X100750000Y-94762500D03*
X100250000Y-94762500D03*
X99750000Y-94762500D03*
X99250000Y-94762500D03*
X98750000Y-94762500D03*
X98250000Y-94762500D03*
X97750000Y-94762500D03*
D66*
X97062500Y-95450000D03*
X97062500Y-95950000D03*
X97062500Y-96450000D03*
X97062500Y-96950000D03*
X97062500Y-97450000D03*
X97062500Y-97950000D03*
X97062500Y-98450000D03*
X97062500Y-98950000D03*
X97062500Y-99450000D03*
X97062500Y-99950000D03*
X97062500Y-100450000D03*
X97062500Y-100950000D03*
X97062500Y-101450000D03*
X97062500Y-101950000D03*
X97062500Y-102450000D03*
X97062500Y-102950000D03*
X97062500Y-103450000D03*
X97062500Y-103950000D03*
D67*
X97750000Y-104637500D03*
X98250000Y-104637500D03*
X98750000Y-104637500D03*
X99250000Y-104637500D03*
X99750000Y-104637500D03*
X100250000Y-104637500D03*
X100750000Y-104637500D03*
X101250000Y-104637500D03*
X101750000Y-104637500D03*
X102250000Y-104637500D03*
X102750000Y-104637500D03*
X103250000Y-104637500D03*
X103750000Y-104637500D03*
X104250000Y-104637500D03*
X104750000Y-104637500D03*
X105250000Y-104637500D03*
X105750000Y-104637500D03*
X106250000Y-104637500D03*
D68*
X102000000Y-99700000D03*
%TD*%
D69*
%TO.C,FB1*%
X110950000Y-100512500D03*
X110950000Y-102087500D03*
%TD*%
D11*
%TO.C,R25*%
X111400000Y-85490000D03*
X111400000Y-86510000D03*
%TD*%
D15*
%TO.C,R51*%
X95510000Y-103100000D03*
X94490000Y-103100000D03*
%TD*%
D37*
%TO.C,U4*%
X87685000Y-95550000D03*
X88185000Y-95550000D03*
X88685000Y-95550000D03*
X89185000Y-95550000D03*
X89185000Y-93650000D03*
X88685000Y-93650000D03*
X88185000Y-93650000D03*
X87685000Y-93650000D03*
D38*
X88435000Y-94600000D03*
%TD*%
D28*
%TO.C,R38*%
X117465000Y-103625000D03*
X118485000Y-103625000D03*
%TD*%
%TO.C,R48*%
X100290000Y-111300000D03*
X101310000Y-111300000D03*
%TD*%
D70*
%TO.C,U6*%
X92000000Y-111000000D03*
X92000000Y-110500000D03*
X92000000Y-110000000D03*
X92000000Y-109500000D03*
X90100000Y-109500000D03*
X90100000Y-110000000D03*
X90100000Y-110500000D03*
X90100000Y-111000000D03*
D71*
X91050000Y-110250000D03*
%TD*%
D28*
%TO.C,R17*%
X108290000Y-99250000D03*
X109310000Y-99250000D03*
%TD*%
D11*
%TO.C,R31*%
X83800000Y-109490000D03*
X83800000Y-110510000D03*
%TD*%
D48*
%TO.C,C12*%
X90250000Y-112700000D03*
X92150000Y-112700000D03*
%TD*%
D28*
%TO.C,R1*%
X94490000Y-101400000D03*
X95510000Y-101400000D03*
%TD*%
D72*
%TO.C,U12*%
X112899391Y-103468629D03*
X113182233Y-103751472D03*
X113465076Y-104034315D03*
X113747919Y-104317158D03*
X114030762Y-104600000D03*
D73*
X114950000Y-104600000D03*
X115232843Y-104317158D03*
X115515686Y-104034315D03*
X115798529Y-103751472D03*
X116081371Y-103468629D03*
D72*
X116081371Y-102549391D03*
X115798529Y-102266548D03*
X115515686Y-101983705D03*
X115232843Y-101700862D03*
X114950000Y-101418020D03*
D73*
X114030762Y-101418020D03*
X113747919Y-101700862D03*
X113465076Y-101983705D03*
X113182233Y-102266548D03*
X112899391Y-102549391D03*
D74*
X114490381Y-103009010D03*
%TD*%
D75*
%TO.C,Q2*%
X86445000Y-99792500D03*
X84545000Y-99792500D03*
X85495000Y-101667500D03*
%TD*%
D28*
%TO.C,R36*%
X108290000Y-100100000D03*
X109310000Y-100100000D03*
%TD*%
D35*
%TO.C,C40*%
X93020000Y-104950000D03*
X93980000Y-104950000D03*
%TD*%
%TO.C,C2*%
X108320000Y-101950000D03*
X109280000Y-101950000D03*
%TD*%
D19*
%TO.C,R24*%
X87800000Y-113010000D03*
X87800000Y-111990000D03*
%TD*%
D20*
%TO.C,C44*%
X100500000Y-88580000D03*
X100500000Y-87620000D03*
%TD*%
D76*
%TO.C,L3*%
X94000000Y-110887500D03*
X94000000Y-107912500D03*
%TD*%
D17*
%TO.C,C29*%
X92250000Y-101750000D03*
X92250000Y-99850000D03*
%TD*%
D36*
%TO.C,C3*%
X110125000Y-93200000D03*
X110125000Y-95100000D03*
%TD*%
D77*
%TO.C,U9*%
X109350000Y-85025000D03*
X108850000Y-85025000D03*
X108350000Y-85025000D03*
X107850000Y-85025000D03*
D78*
X107162500Y-85712500D03*
X107162500Y-86212500D03*
X107162500Y-86712500D03*
X107162500Y-87212500D03*
D77*
X107850000Y-87900000D03*
X108350000Y-87900000D03*
X108850000Y-87900000D03*
X109350000Y-87900000D03*
D78*
X110037500Y-87212500D03*
X110037500Y-86712500D03*
X110037500Y-86212500D03*
X110037500Y-85712500D03*
D79*
X108600000Y-86462500D03*
%TD*%
D28*
%TO.C,R53*%
X94490000Y-102250000D03*
X95510000Y-102250000D03*
%TD*%
D19*
%TO.C,R29*%
X108350000Y-95710000D03*
X108350000Y-94690000D03*
%TD*%
%TO.C,R9*%
X104200000Y-109960000D03*
X104200000Y-108940000D03*
%TD*%
D20*
%TO.C,C37*%
X106100000Y-93480000D03*
X106100000Y-92520000D03*
%TD*%
M02*
