M48
; DRILL file {KiCad 8.0.1} date 2024-05-06T13:43:09-0700
; FORMAT={-:-/ absolute / inch / decimal}
; #@! TF.CreationDate,2024-05-06T13:43:09-07:00
; #@! TF.GenerationSoftware,Kicad,Pcbnew,8.0.1
; #@! TF.FileFunction,Plated,1,4,PTH
FMAT,2
INCH
; #@! TA.AperFunction,Plated,PTH,ViaDrill
T1C0.0079
; #@! TA.AperFunction,Plated,PTH,ComponentDrill
T2C0.0098
; #@! TA.AperFunction,Plated,PTH,ViaDrill
T3C0.0118
; #@! TA.AperFunction,Plated,PTH,ComponentDrill
T4C0.0118
; #@! TA.AperFunction,Plated,PTH,ComponentDrill
T5C0.0236
%
G90
G05
T1
X3.1295Y-3.7807
X3.1398Y-4.1083
X3.1417Y-3.8465
X3.1417Y-3.9606
X3.1417Y-4.0079
X3.148Y-3.8829
X3.1634Y-3.7894
X3.1964Y-3.6663
X3.1988Y-3.998
X3.2028Y-3.9409
X3.2087Y-4.0807
X3.2165Y-4.3228
X3.2205Y-3.8976
X3.2264Y-3.9843
X3.2283Y-4.2008
X3.2343Y-4.3642
X3.2496Y-3.5114
X3.2598Y-3.8701
X3.2598Y-4.0886
X3.2598Y-4.1201
X3.2638Y-3.8937
X3.285Y-3.7346
X3.3031Y-3.6142
X3.3189Y-4.1831
X3.3209Y-3.6142
X3.3307Y-4.4488
X3.3386Y-3.6142
X3.3524Y-3.8799
X3.3571Y-3.3878
X3.3622Y-4.5098
X3.3681Y-3.7343
X3.3839Y-4.4783
X3.3858Y-3.8858
X3.3988Y-4.5354
X3.3996Y-4.252
X3.3996Y-4.2736
X3.4035Y-3.9606
X3.4232Y-3.7146
X3.4232Y-3.7478
X3.4232Y-4.561
X3.4331Y-4.2303
X3.4488Y-4.5256
X3.4606Y-4.2303
X3.4744Y-4.4311
X3.5Y-4.0748
X3.5Y-4.1339
X3.502Y-3.7913
X3.5112Y-3.6693
X3.5118Y-4.3878
X3.5138Y-4.0394
X3.6063Y-3.7882
X3.6102Y-4.0413
X3.622Y-4.1161
X3.622Y-4.3917
X3.6378Y-4.6969
X3.6398Y-4.3012
X3.6472Y-3.2992
X3.6496Y-4.3228
X3.6614Y-3.7146
X3.6614Y-4.6673
X3.6693Y-4.2067
X3.6713Y-4.4311
X3.6811Y-3.3602
X3.6839Y-3.6724
X3.6949Y-3.9587
X3.6949Y-3.9823
X3.6969Y-4.7047
X3.6988Y-3.7303
X3.6988Y-4.0256
X3.7067Y-3.6929
X3.7098Y-4.1059
X3.7126Y-3.6476
X3.7264Y-4.1949
X3.7283Y-3.7185
X3.7323Y-3.311
X3.7362Y-4.3169
X3.7382Y-4.4193
X3.75Y-3.4823
X3.75Y-3.7067
X3.7736Y-3.4331
X3.7736Y-3.7087
X3.7841Y-4.411
X3.7854Y-3.5122
X3.7874Y-3.8465
X3.7884Y-3.873
X3.7894Y-4.0728
X3.7972Y-3.2283
X3.8031Y-4.2106
X3.8051Y-4.1634
X3.8071Y-4.2598
X3.8071Y-4.4094
X3.8118Y-3.5161
X3.813Y-3.6398
X3.8132Y-3.5739
X3.8161Y-3.3114
X3.8189Y-4.7087
X3.8248Y-3.5945
X3.8268Y-4.3031
X3.8287Y-3.6575
X3.8437Y-3.6071
X3.8465Y-3.5236
X3.8465Y-4.2598
X3.8504Y-4.5846
X3.8524Y-4.311
X3.853Y-3.8866
X3.8543Y-3.9094
X3.8543Y-4.0315
X3.8543Y-4.063
X3.8584Y-3.8418
X3.8614Y-3.5965
X3.8661Y-3.9291
X3.8661Y-4.1496
X3.8701Y-4.5079
X3.874Y-4.3602
X3.878Y-3.9803
X3.8783Y-3.6122
X3.8837Y-3.2714
X3.8839Y-4.626
X3.8924Y-3.7053
X3.8937Y-4.5846
X3.8954Y-3.5968
X3.8976Y-3.6575
X3.9024Y-3.2527
X3.9094Y-4.1614
X3.9173Y-4.3622
X3.9183Y-3.5551
X3.9198Y-3.2701
X3.9213Y-3.5138
X3.9252Y-4.3937
X3.9272Y-3.7028
X3.9301Y-3.594
X3.9336Y-4.063
X3.9367Y-3.5713
X3.937Y-3.248
X3.9409Y-4.1614
X3.9514Y-3.5924
X3.9567Y-4.6181
X3.9598Y-3.5705
X3.9666Y-3.7917
X3.9768Y-3.3122
X3.9783Y-4.5
X3.9803Y-4.1575
X3.9862Y-3.6555
X3.9941Y-3.7854
X3.9961Y-4.561
X4.0079Y-4.3819
X4.0163Y-4.5
X4.0197Y-3.2717
X4.0215Y-4.4
X4.0492Y-4.7165
X4.0551Y-4.2598
X4.0565Y-3.2541
X4.0571Y-3.5531
X4.0571Y-3.5709
X4.0571Y-3.5886
X4.0571Y-4.3583
X4.059Y-3.1959
X4.0591Y-3.6161
X4.0606Y-4.3056
X4.0606Y-4.5819
X4.063Y-3.7087
X4.063Y-4.2087
X4.0742Y-3.2702
X4.0773Y-3.2123
X4.0787Y-3.6555
X4.0866Y-4.3661
X4.0904Y-3.3861
X4.0965Y-4.2469
X4.1008Y-3.2988
X4.1063Y-4.563
X4.1102Y-3.6555
X4.126Y-3.7913
X4.126Y-4.3602
X4.129Y-3.3589
X4.1378Y-4.1654
X4.1387Y-3.7706
X4.1437Y-4.2126
X4.1521Y-3.374
X4.1643Y-3.8386
X4.1673Y-3.7008
X4.1673Y-4.5472
X4.1673Y-4.6417
X4.1713Y-3.6161
X4.1713Y-4.2894
X4.1732Y-4.0866
X4.1732Y-4.1831
X4.1746Y-3.8097
X4.1791Y-3.939
X4.1791Y-4.6988
X4.1929Y-3.7047
X4.2028Y-4.5709
X4.2087Y-3.2126
X4.2205Y-3.7283
X4.2244Y-4.1496
X4.2244Y-4.2382
X4.2244Y-4.5709
X4.2343Y-4.1181
X4.2343Y-4.2933
X4.2365Y-3.3531
X4.2382Y-3.9154
X4.2382Y-3.9429
X4.2417Y-4.0591
X4.2461Y-3.6161
X4.248Y-4.5709
X4.2638Y-4.187
X4.2697Y-4.1526
X4.2776Y-3.6575
X4.2815Y-4.2303
X4.2874Y-3.2677
X4.3031Y-3.5433
X4.3047Y-3.2205
X4.3051Y-4.5295
X4.313Y-3.6181
X4.315Y-3.7067
X4.3209Y-3.3484
X4.3248Y-3.4882
X4.3287Y-4.0138
X4.3327Y-3.7894
X4.3327Y-3.8858
X4.3386Y-3.4685
X4.3406Y-3.3092
X4.3445Y-4.1181
X4.3465Y-3.3484
X4.3504Y-3.5945
X4.3583Y-3.7047
X4.3724Y-4.4697
X4.374Y-3.7283
X4.376Y-4.0906
X4.3858Y-3.687
X4.3937Y-4.3346
X4.4114Y-3.687
X4.4134Y-3.8701
X4.4134Y-3.9272
X4.4134Y-4.0315
X4.4213Y-3.9035
X4.4262Y-3.3209
X4.4429Y-3.9429
X4.4449Y-3.7224
X4.4665Y-3.939
X4.4685Y-3.7461
X4.4744Y-3.9646
X4.4764Y-4.2323
X4.4783Y-3.8327
X4.4843Y-3.7618
X4.498Y-3.7756
X4.502Y-3.6594
X4.5039Y-3.5591
X4.5039Y-3.9783
X4.5039Y-4.1476
X4.5122Y-3.4071
X4.5197Y-3.8189
X4.5236Y-4.4508
X4.5305Y-3.9232
X4.5315Y-3.9606
X4.5334Y-3.8681
X4.5453Y-3.6378
X4.5551Y-3.8976
X4.5551Y-3.9843
X4.5827Y-3.9843
X4.5886Y-4.0118
X4.5925Y-4.0591
X4.5945Y-3.8543
X4.6161Y-4.3799
X4.6516Y-3.613
X4.6742Y-3.935
X4.685Y-3.8563
X4.6878Y-3.7378
X4.6949Y-4.2291
X4.6988Y-4.0984
X4.6988Y-4.1457
X4.7264Y-3.9892
X4.7343Y-4.0335
T2
X3.462Y-3.7244
X3.4626Y-3.9764
X3.5014Y-3.7244
X3.502Y-3.9764
X3.5846Y-4.3209
X3.5846Y-4.3602
T3
X3.3287Y-3.9705
X3.3287Y-3.9902
X3.3287Y-4.0098
X3.3287Y-4.0295
X3.3287Y-4.0492
X3.3583Y-3.6398
X3.3583Y-3.6602
X3.3587Y-3.6799
X3.3996Y-3.998
X3.3996Y-4.0177
X3.3996Y-4.0374
X3.3996Y-4.0571
X3.3996Y-4.0768
X3.4016Y-3.572
X3.4016Y-3.5925
X3.402Y-3.6122
X3.4213Y-3.561
X3.4429Y-3.561
X3.4961Y-3.5
X3.4961Y-3.5205
X3.4965Y-3.5402
X3.5268Y-3.8228
X3.5268Y-3.8425
X3.5268Y-3.8622
X3.5268Y-3.8819
X3.5669Y-3.7165
X3.5866Y-3.7165
X3.5874Y-4.4173
X3.5874Y-4.437
X3.5874Y-4.4567
X3.6063Y-3.7165
X3.6063Y-3.9717
X3.6122Y-3.8917
X3.626Y-3.7165
X3.626Y-3.9717
X3.6287Y-3.5799
X3.6287Y-3.6004
X3.6291Y-3.6201
X3.6319Y-3.8917
X3.6417Y-4.2283
X3.6417Y-4.248
X3.6417Y-4.2677
X3.6457Y-3.9717
X3.6457Y-3.9973
X3.6516Y-3.8917
X3.6929Y-3.5768
X3.6933Y-3.5965
X3.6949Y-3.8917
X3.7126Y-3.5768
X3.713Y-3.5965
X3.7795Y-3.3524
X3.7795Y-3.372
X3.7992Y-4.1083
X3.8189Y-3.2126
X3.8307Y-3.3937
X3.835Y-3.1768
X3.8504Y-3.3937
X3.8522Y-3.9502
X3.8543Y-3.7894
X3.8563Y-3.1768
X3.8598Y-3.4654
X3.8626Y-4.0009
X3.8799Y-3.4657
X3.8819Y-3.8169
X3.8976Y-3.7913
X3.9104Y-3.7666
X3.9134Y-3.8248
X3.9134Y-3.876
X3.9134Y-3.9803
X3.9134Y-4.0276
X3.9331Y-3.3957
X3.9528Y-3.3957
X3.9571Y-3.8291
X3.9607Y-3.7645
X3.9626Y-3.9291
X3.9626Y-3.9803
X3.9626Y-4.0276
X3.9744Y-3.248
X3.9862Y-4.0748
X4.0157Y-3.876
X4.0157Y-3.9291
X4.0157Y-3.9803
X4.0157Y-4.0276
X4.0433Y-3.3465
X4.0433Y-3.3661
X4.0433Y-3.3858
X4.0591Y-3.7697
X4.063Y-3.3858
X4.0689Y-3.876
X4.0689Y-3.9291
X4.0689Y-3.9803
X4.0689Y-4.0276
X4.0827Y-3.5118
X4.0827Y-3.5315
X4.0827Y-3.5512
X4.0827Y-3.5709
X4.0827Y-3.5906
X4.1181Y-3.876
X4.1181Y-3.9291
X4.1181Y-3.9803
X4.1181Y-4.0276
X4.1508Y-3.8923
X4.1516Y-3.9941
X4.1516Y-4.0138
X4.1516Y-3.7928
X4.1732Y-3.9685
X4.1776Y-3.7789
X4.2047Y-4.502
X4.2165Y-3.2642
X4.2244Y-4.502
X4.2441Y-4.502
X4.252Y-3.4272
X4.2559Y-3.4961
X4.2717Y-3.5177
X4.2894Y-3.3898
X4.2992Y-3.502
X4.3327Y-3.9409
X4.3445Y-3.6398
X4.3622Y-3.3937
X4.4803Y-4.0551
X4.5059Y-4.0807
X4.5075Y-4.0555
X4.5079Y-4.0295
X4.5335Y-4.0551
T4
X3.4327Y-4.2569
X3.4327Y-4.2951
X3.4831Y-4.2569
X3.4831Y-4.2951
T5
G00X3.7669Y-4.4722
M15
G01X3.7669Y-4.5116
M16
G05
G00X3.7669Y-4.6734
M15
G01X3.7669Y-4.7325
M16
G05
G00X4.1071Y-4.4722
M15
G01X4.1071Y-4.5116
M16
G05
G00X4.1071Y-4.6734
M15
G01X4.1071Y-4.7325
M16
G05
M30
